<svg xmlns="http://www.w3.org/2000/svg" xmlns:xlink="http://www.w3.org/1999/xlink" width="500" zoomAndPan="magnify" viewBox="0 0 375 374.999991" height="500" preserveAspectRatio="xMidYMid meet" version="1.2"><defs><clipPath id="a9b708311d"><path d="M 33.128906 56 L 341 56 L 341 320.796875 L 33.128906 320.796875 Z M 33.128906 56 "/></clipPath></defs><g id="68921c09da"><g clip-rule="nonzero" clip-path="url(#a9b708311d)"><path style=" stroke:none;fill-rule:evenodd;fill:#ffffff;fill-opacity:1;" d="M 247.507812 194.96875 C 237.0625 194.96875 228.597656 186.5 228.597656 176.058594 C 228.597656 165.617188 237.0625 157.148438 247.507812 157.148438 C 257.949219 157.148438 266.417969 165.617188 266.417969 176.058594 C 266.417969 186.5 257.949219 194.96875 247.507812 194.96875 Z M 184.476562 194.96875 C 174.035156 194.96875 165.566406 186.5 165.566406 176.058594 C 165.566406 165.617188 174.035156 157.148438 184.476562 157.148438 C 194.921875 157.148438 203.386719 165.617188 203.386719 176.058594 C 203.386719 186.5 194.921875 194.96875 184.476562 194.96875 Z M 121.449219 194.96875 C 111.003906 194.96875 102.539062 186.5 102.539062 176.058594 C 102.539062 165.617188 111.003906 157.148438 121.449219 157.148438 C 131.890625 157.148438 140.359375 165.617188 140.359375 176.058594 C 140.359375 186.5 131.890625 194.96875 121.449219 194.96875 Z M 189.429688 56.257812 C 104.660156 54.585938 34.878906 106.824219 33.578125 172.933594 C 33.125 195.914062 41.011719 217.546875 55.054688 236.0625 L 55.050781 236.0625 C 79.195312 267.082031 52.839844 320.410156 52.839844 320.410156 L 130.648438 286.898438 C 147.410156 292.195312 165.625 295.28125 184.714844 295.660156 C 269.484375 297.328125 339.265625 245.09375 340.566406 178.984375 C 341.871094 112.871094 274.207031 57.929688 189.429688 56.257812 "/></g></g></svg>